<svg width="107" height="111" viewBox="0 0 107 111" fill="none" xmlns="http://www.w3.org/2000/svg">
<path d="M2.50095 74.4497L1.63315 74.9494L2.13413 75.8165L10.0896 89.5857L10.5882 90.4486L11.4529 89.9529L44.3783 71.0757V108.821V109.821H45.3783H60.9833H61.9833V108.821V71.0757L94.9087 89.9529L95.7733 90.4486L96.2719 89.5857L104.227 75.8165L104.73 74.9461L103.857 74.4478L70.7972 55.5772L103.86 36.5586L104.729 36.0591L104.227 35.1915L96.2719 21.4224L95.77 20.5537L94.9029 21.0585L61.9833 40.225V2.18695V1.18695H60.9833H45.3783H44.3783V2.18695V40.225L11.4586 21.0585L10.5916 20.5537L10.0896 21.4224L2.13413 35.1915L1.63482 36.0557L2.49805 36.5567L35.2718 55.5772L2.50095 74.4497Z" stroke="white" stroke-width="2"/>
</svg>
